<svg width="32" height="32" viewBox="0 0 32 32" fill="none" xmlns="http://www.w3.org/2000/svg">
<g clip-path="url(#clip0_1_2)">
<rect width="32" height="32" fill="black"/>
<path d="M13.532 28.496C12.2627 28.496 11.1333 28.328 10.144 27.992C9.17333 27.6747 8.41733 27.18 7.876 26.508C7.33467 25.836 7.064 25.0053 7.064 24.016C7.064 23.5867 7.148 23.1293 7.316 22.644C7.50267 22.1587 7.81067 21.6827 8.24 21.216C8.688 20.7493 9.31333 20.3293 10.116 19.956L11.74 20.908C10.7507 21.3187 10.1067 21.7853 9.808 22.308C9.50933 22.8493 9.36 23.344 9.36 23.792C9.36 24.408 9.53733 24.9213 9.892 25.332C10.2467 25.7427 10.7413 26.0507 11.376 26.256C12.0107 26.4613 12.7293 26.564 13.532 26.564C14.3347 26.564 15.0253 26.452 15.604 26.228C16.1827 26.004 16.6307 25.6867 16.948 25.276C17.2653 24.8653 17.424 24.38 17.424 23.82C17.424 23.1667 17.1813 22.616 16.696 22.168C16.2107 21.7387 15.2867 21.4867 13.924 21.412C12.8227 21.3373 11.8987 21.2347 11.152 21.104C10.4053 20.9733 9.78933 20.824 9.304 20.656C8.81867 20.4693 8.408 20.264 8.072 20.04C7.75467 19.816 7.46533 19.5827 7.204 19.34V18.696L9.92 16.008L11.964 16.736L9.164 19.256L9.528 18.276C9.73333 18.4253 9.92933 18.5653 10.116 18.696C10.3027 18.8267 10.5547 18.9387 10.872 19.032C11.1893 19.1253 11.628 19.2093 12.188 19.284C12.7667 19.3587 13.5227 19.4333 14.456 19.508C15.744 19.6013 16.7707 19.8253 17.536 20.18C18.32 20.5347 18.88 21.0107 19.216 21.608C19.5707 22.2053 19.748 22.9147 19.748 23.736C19.748 24.5387 19.524 25.2947 19.076 26.004C18.6467 26.732 17.9747 27.3293 17.06 27.796C16.1453 28.2627 14.9693 28.496 13.532 28.496ZM13.504 17.576C12.328 17.576 11.32 17.352 10.48 16.904C9.65867 16.456 9.03333 15.8587 8.604 15.112C8.17467 14.3467 7.96 13.4973 7.96 12.564C7.96 11.6307 8.17467 10.7907 8.604 10.044C9.052 9.29733 9.68667 8.7 10.508 8.252C11.3293 7.78533 12.328 7.552 13.504 7.552C14.68 7.552 15.6787 7.78533 16.5 8.252C17.3213 8.7 17.9467 9.29733 18.376 10.044C18.8053 10.7907 19.02 11.6307 19.02 12.564C19.02 13.4973 18.8053 14.3467 18.376 15.112C17.9467 15.8587 17.3213 16.456 16.5 16.904C15.6787 17.352 14.68 17.576 13.504 17.576ZM13.504 15.644C14.512 15.644 15.3053 15.3827 15.884 14.86C16.4627 14.3373 16.752 13.572 16.752 12.564C16.752 11.5747 16.4627 10.8187 15.884 10.296C15.3053 9.77333 14.512 9.512 13.504 9.512C12.5147 9.512 11.712 9.77333 11.096 10.296C10.4987 10.8187 10.2 11.5747 10.2 12.564C10.2 13.572 10.4987 14.3373 11.096 14.86C11.6933 15.3827 12.496 15.644 13.504 15.644ZM15.8 9.876L15.1 7.888H20.868V9.652L15.8 9.876ZM18.8842 28.16V26.144H19.9762C20.6855 26.144 21.1895 25.9947 21.4882 25.696C21.7868 25.416 21.9362 24.9307 21.9362 24.24V7.888H24.2882V24.296C24.2882 25.192 24.1388 25.92 23.8402 26.48C23.5415 27.0587 23.0935 27.4787 22.4962 27.74C21.9175 28.02 21.1988 28.16 20.3402 28.16H18.8842ZM23.1402 4.892C22.6735 4.892 22.2815 4.74267 21.9642 4.444C21.6655 4.12667 21.5162 3.73467 21.5162 3.268C21.5162 2.80133 21.6655 2.428 21.9642 2.148C22.2815 1.84933 22.6735 1.7 23.1402 1.7C23.5882 1.7 23.9615 1.84933 24.2602 2.148C24.5775 2.428 24.7362 2.80133 24.7362 3.268C24.7362 3.73467 24.5775 4.12667 24.2602 4.444C23.9615 4.74267 23.5882 4.892 23.1402 4.892Z" fill="white"/>
</g>
<defs>
<clipPath id="clip0_1_2">
<rect width="32" height="32" fill="white"/>
</clipPath>
</defs>
</svg>
